HIERARCHY
ROOT Hips
{
	OFFSET 0.00000 0.00000 0.00000
	CHANNELS 6 Xposition Yposition Zposition Zrotation Yrotation Xrotation 
	JOINT LHipJoint
	{
		OFFSET 0 0 0
		CHANNELS 3 Zrotation Yrotation Xrotation
		JOINT LeftHip
		{
			OFFSET 1.59801 -1.77853 0.57028
			CHANNELS 3 Zrotation Yrotation Xrotation
			JOINT LeftKnee
			{
				OFFSET 2.39439 -6.57854 0.00000
				CHANNELS 3 Zrotation Yrotation Xrotation
				JOINT LeftAnkle
				{
					OFFSET 2.69334 -7.39989 0.00000
					CHANNELS 3 Zrotation Yrotation Xrotation
					JOINT LeftToe
					{
						OFFSET 0.09553 -0.26245 1.73747
						CHANNELS 3 Zrotation Yrotation Xrotation
						End Site
						{
							OFFSET 0.00000 -0.00000 0.89391
						}
					}
				}
			}
		}
	}
	JOINT RHipJoint
	{
		OFFSET 0 0 0
		CHANNELS 3 Zrotation Yrotation Xrotation
		JOINT RightHip
		{
			OFFSET -1.54704 -1.77852 0.57028
			CHANNELS 3 Zrotation Yrotation Xrotation
			JOINT RightKnee
			{
				OFFSET -2.40286 -6.60180 0.00000
				CHANNELS 3 Zrotation Yrotation Xrotation
				JOINT RightAnkle
				{
					OFFSET -2.63873 -7.24984 0.00000
					CHANNELS 3 Zrotation Yrotation Xrotation
					JOINT RightToe
					{
						OFFSET -0.15631 -0.42945 1.84436
						CHANNELS 3 Zrotation Yrotation Xrotation
						End Site
						{
							OFFSET -0.00000 -0.00000 0.95734
						}
					}
				}
			}
		}
	}
	JOINT lowerback
	{
		OFFSET 0 0 0
		CHANNELS 3 Zrotation Yrotation Xrotation
		JOINT Chest
		{
			OFFSET -0.00436 1.89866 -0.04018
			CHANNELS 3 Zrotation Yrotation Xrotation
			JOINT Chest2
			{
				OFFSET 0.02031 1.88273 0.09634
				CHANNELS 3 Zrotation Yrotation Xrotation
				JOINT lowerneck
				{
					OFFSET 0 0 0
					CHANNELS 3 Zrotation Yrotation Xrotation
					JOINT Neck
					{
						OFFSET -0.13105 1.89371 0.23083
						CHANNELS 3 Zrotation Yrotation Xrotation
						JOINT Head
						{
							OFFSET 0.17062 1.83990 -0.54062
							CHANNELS 3 Zrotation Yrotation Xrotation
							End Site
							{
								OFFSET 0.04576 1.94782 -0.21839
							}
						}
					}
				}
				JOINT LeftCollar
				{
					OFFSET 0 0 0
					CHANNELS 3 Zrotation Yrotation Xrotation
					JOINT LeftShoulder
					{
						OFFSET 3.12424 1.09204 0.22226
CHANNELS 3 Zrotation Xrotation Yrotation
						JOINT LeftElbow
						{
OFFSET 0 -5.292770 0.000000
CHANNELS 3 Zrotation Xrotation Yrotation
							JOINT LeftWrist
							{
OFFSET 0 -2.852260 0.000000
CHANNELS 3 Zrotation Xrotation Yrotation
								JOINT lhand
								{
									OFFSET 0 0 0
CHANNELS 3 Zrotation Xrotation Yrotation
									JOINT LFingers
									{
OFFSET 0 -0.602100 0.000000
CHANNELS 3 Zrotation Xrotation Yrotation
										End Site
										{
OFFSET 0 -0.485430 0.000000
										}
									}
								}
								JOINT LThumb
								{
OFFSET 0 0.000000 0.000000
CHANNELS 3 Zrotation Xrotation Yrotation
									End Site
									{
OFFSET 0 -0.492840 0.492840
									}
								}
							}
						}
					}
				}
				JOINT RightCollar
				{
					OFFSET 0 0 0
					CHANNELS 3 Zrotation Yrotation Xrotation
					JOINT RightShoulder
					{
						OFFSET -2.91709 1.01504 0.30199
CHANNELS 3 Zrotation Xrotation Yrotation
						JOINT RightElbow
						{
OFFSET 0 -5.133040 0.000000
CHANNELS 3 Zrotation Xrotation Yrotation
							JOINT RightWrist
							{
OFFSET 0 -2.743050 0.000000
CHANNELS 3 Zrotation Xrotation Yrotation
								JOINT rhand
								{
									OFFSET 0 0 0
CHANNELS 3 Zrotation Xrotation Yrotation
									JOINT RFingers
									{
OFFSET 0 -0.767980 0.000000
CHANNELS 3 Zrotation Xrotation Yrotation
										End Site
										{
OFFSET 0 -0.619160 0.000000
										}
									}
								}
								JOINT RThumb
								{
OFFSET 0 0.000000 0.000000
CHANNELS 3 Zrotation Xrotation Yrotation
									End Site
									{
OFFSET 0 -0.628620 0.628620
									}
								}
							}
						}
					}
				}
			}
		}
	}
}
MOTION
Frames: 8
Frame Time: 0.008333333333333333
-0.239023 15.778410 -2.195792 -11.720692 -9.130711 4.324920 0.000000 0.000000 0.000000 0.780076 -10.880090 -32.664542 10.582560 17.724646 61.418402 2.500166 -3.487195 -29.075306 1.708657 -8.230619 -23.416948 0.000000 0.000000 0.000000 29.290734 13.060772 -28.480006 -7.148815 -15.455998 49.435018 -1.838993 11.303299 -24.442449 -0.960848 6.241378 -17.486409 -7.416659 0.268062 21.291833 -6.265257 -1.235868 11.210291 -2.272138 -0.793916 0.384924 -18.480233 -8.434767 -0.324900 25.572990 -12.940508 5.593595 10.623852 -6.356159 4.698780 0.000000 0.000000 0.000000 -11.042516 -37.895572 -44.286949 158.674048 -32.206786 113.777224 -28.965735 -6.543617 -36.596926 0.000000 0.000000 0.000000 -7.125000 0.000000 0.000000 -65.194803 55.135705 23.234667 0.000000 0.000000 0.000000 0.545714 -33.901539 47.808851 -157.547990 -33.484075 -113.166458 26.641739 28.844044 -7.290138 0.000000 0.000000 0.000000 7.125000 0.000000 0.000000 35.744268 21.033870 26.089811
-0.337372 15.885436 -2.193274 -11.926694 -7.060287 4.626458 0.000000 0.000000 0.000000 1.504398 -11.367564 -32.801401 10.029527 17.426143 59.586682 2.297253 -4.834507 -27.585825 1.452107 -7.616805 -21.556214 0.000000 0.000000 0.000000 29.917989 11.684266 -28.275835 -6.685870 -15.061415 47.675724 -1.716411 10.675597 -23.575180 -0.892542 6.021404 -16.846682 -8.272439 0.951125 20.270575 -4.501964 -0.303643 11.382008 -0.086860 -0.438908 1.104758 -19.653793 -8.207499 2.220345 25.236057 -12.735459 4.571159 10.845518 -6.461581 3.953016 0.000000 0.000000 0.000000 -9.890039 -38.649744 -42.945722 158.421359 -32.497457 113.641982 -27.435120 -4.815872 -36.003452 0.000000 0.000000 0.000000 -7.125000 0.000000 0.000000 -63.347829 55.119645 22.054686 0.000000 0.000000 0.000000 1.335790 -33.650417 48.420488 -156.806990 -34.299234 -112.753258 27.389157 31.765378 -10.410599 0.000000 0.000000 0.000000 7.125000 0.000000 0.000000 35.261790 18.092648 28.641994
-0.355335 16.219072 -2.194517 -9.105999 -2.406402 6.291405 0.000000 0.000000 0.000000 -1.421589 -13.161263 -33.205676 8.206095 16.267701 53.299929 1.716384 -5.769921 -23.583618 1.382755 -7.440063 -21.026013 0.000000 0.000000 0.000000 26.674586 11.819678 -28.348717 -5.687420 -14.118072 43.713232 -1.590201 6.511349 -22.619440 -0.953427 6.217651 -17.417397 -8.240422 1.015296 20.466529 -2.241414 -0.137364 11.499125 2.281398 -0.412193 1.135644 -20.921615 -8.516539 1.007524 24.790736 -12.932343 4.870262 10.823961 -6.479750 4.361992 0.000000 0.000000 0.000000 -8.156219 -39.721247 -41.442829 157.852750 -33.142963 113.333792 -29.153726 -4.244860 -35.046403 0.000000 0.000000 0.000000 -7.125000 0.000000 0.000000 -63.541736 54.198688 20.532222 0.000000 0.000000 0.000000 0.248135 -35.270722 49.715347 -157.132406 -33.943723 -112.935780 25.840645 29.440682 -6.882278 0.000000 0.000000 0.000000 7.125000 0.000000 0.000000 35.462308 21.532637 25.218663
-0.289048 16.513407 -2.203653 -4.696843 4.754787 8.956158 0.000000 0.000000 0.000000 -6.000809 -17.112640 -33.890248 6.288334 14.701018 46.126248 1.031461 -7.622868 -18.155235 1.108348 -6.688636 -18.796136 0.000000 0.000000 0.000000 21.113407 11.326612 -29.987246 -5.119965 -13.517633 41.338506 -1.490969 0.279741 -23.019242 -1.043391 6.495364 -18.228971 -4.980702 0.552503 19.876156 0.016870 -0.041311 11.637659 2.839986 -0.264189 1.509000 -20.908832 -9.311350 0.788767 25.164424 -13.784874 3.604884 10.824405 -6.885393 4.285778 0.000000 0.000000 0.000000 -5.407918 -42.140658 -42.429556 157.008738 -34.079231 112.866598 -28.488675 -5.084210 -35.579061 0.000000 0.000000 0.000000 -7.125000 0.000000 0.000000 -63.652851 54.649328 21.408525 0.000000 0.000000 0.000000 -0.945445 -35.887422 46.624809 -157.623741 -33.399660 -113.208178 25.223335 27.879416 -6.740913 0.000000 0.000000 0.000000 7.125000 0.000000 0.000000 35.185556 21.752276 24.677971
-0.153580 16.598662 -2.236822 1.307821 12.761279 10.338759 0.000000 0.000000 0.000000 -13.126837 -21.151808 -32.632602 5.044697 13.433834 41.015094 0.360765 -11.427402 -12.497277 0.568256 -4.823735 -13.407389 0.000000 0.000000 0.000000 14.223532 6.901355 -31.777056 -5.575664 -14.003709 43.253280 -1.546083 -3.209673 -24.828737 -1.160061 6.836904 -19.233376 -0.827929 0.068321 20.826996 2.266733 0.112020 11.370948 2.860761 -0.009098 0.691212 -19.918755 -10.530163 0.723092 26.898381 -15.315744 2.127162 11.062546 -7.621850 4.350915 0.000000 0.000000 0.000000 -3.273958 -44.171968 -46.502580 156.796962 -34.310053 112.747563 -29.457306 -6.361085 -35.306963 0.000000 0.000000 0.000000 -7.125000 0.000000 0.000000 -64.062348 54.289467 21.003721 0.000000 0.000000 0.000000 -1.081075 -34.869274 43.856170 -157.944930 -33.039164 -113.384121 21.637154 29.002625 -5.623857 0.000000 0.000000 0.000000 7.125000 0.000000 0.000000 33.580754 23.230359 21.495963
0.008716 16.371730 -2.252078 5.653681 18.364985 9.995292 0.000000 0.000000 0.000000 -19.011470 -23.230815 -31.836494 5.372897 13.791743 42.409706 -0.118925 -15.768365 -9.773941 0.203178 -2.902071 -8.006205 0.000000 0.000000 0.000000 9.172080 1.755617 -33.448056 -7.200004 -15.497684 49.626184 -2.097063 -3.196571 -28.651821 -1.144001 6.792004 -19.100538 1.882695 0.095481 20.930907 5.424794 0.761699 11.255721 4.585248 0.368832 0.487845 -18.317256 -10.402625 0.267896 28.471733 -15.082883 2.087904 11.380650 -7.406830 4.395541 0.000000 0.000000 0.000000 -2.397446 -46.487589 -49.435236 156.388797 -34.750381 112.516192 -28.650072 -6.268487 -35.274727 0.000000 0.000000 0.000000 -7.125000 0.000000 0.000000 -63.426057 54.436925 20.893937 0.000000 0.000000 0.000000 -0.140427 -34.238984 42.425711 -157.775439 -33.229860 -113.291500 22.503629 28.962341 -5.746209 0.000000 0.000000 0.000000 7.125000 0.000000 0.000000 34.026763 23.018083 22.141776
0.153438 15.994776 -2.274076 7.345711 20.271109 8.413851 0.000000 0.000000 0.000000 -21.814834 -23.685148 -32.624464 6.813482 15.172539 48.164802 -0.288164 -18.581694 -10.317426 0.020330 -0.915342 -2.516009 0.000000 0.000000 0.000000 6.484533 -1.251871 -34.902910 -9.125474 -16.887541 56.522747 -2.645264 -1.953560 -31.508851 -1.390296 7.460033 -21.085606 3.821796 0.400556 20.078959 7.730374 1.445971 12.404832 5.897824 0.744396 2.161835 -16.137521 -10.159306 -0.913771 30.113849 -14.463214 1.193624 11.623402 -6.990775 4.198697 0.000000 0.000000 0.000000 -1.752983 -45.977339 -49.715255 156.748723 -34.362454 112.720406 -27.865965 -6.876004 -35.354139 0.000000 0.000000 0.000000 -7.125000 0.000000 0.000000 -62.927996 54.646627 20.973520 0.000000 0.000000 0.000000 2.713770 -35.773592 43.491469 -157.056471 -34.026925 -112.893318 21.405832 31.086435 -5.316341 0.000000 0.000000 0.000000 7.125000 0.000000 0.000000 33.536311 23.530986 21.155367
0.234857 15.783570 -2.265813 7.247978 20.083386 5.539235 0.000000 0.000000 0.000000 -23.006017 -23.412961 -31.144427 7.780236 15.955132 51.767026 -0.047307 -18.411478 -12.517259 0.027111 -1.062580 -2.921039 0.000000 0.000000 0.000000 5.884145 -2.608548 -33.459378 -9.985373 -17.401646 59.439550 -2.975738 -0.504857 -32.885076 -1.342931 7.336908 -20.717527 3.752640 0.333643 20.738098 9.554071 1.371325 13.587749 8.049978 0.624926 3.168645 -16.809134 -9.510581 -0.284685 30.566845 -13.642971 1.393382 12.082825 -6.622162 4.028262 0.000000 0.000000 0.000000 -2.836346 -42.973359 -48.486715 156.299737 -34.845623 112.465421 -27.710829 -5.981815 -34.900476 0.000000 0.000000 0.000000 -7.125000 0.000000 0.000000 -62.298790 54.407993 20.189672 0.000000 0.000000 0.000000 2.295787 -35.892709 44.364264 -157.341721 -33.713032 -113.052284 21.097623 29.923417 -4.321035 0.000000 0.000000 0.000000 7.125000 0.000000 0.000000 33.642707 24.451241 20.334778
